<?xml version="1.0" encoding="UTF-8" standalone="no"?><!DOCTYPE svg PUBLIC "-//W3C//DTD SVG 1.1//EN" "http://www.w3.org/Graphics/SVG/1.1/DTD/svg11.dtd"><!-- Generated by graphviz version 2.40.1 (20161225.0304)
 --><!-- Title: %0 Pages: 1 --><svg xmlns="http://www.w3.org/2000/svg" xmlns:xlink="http://www.w3.org/1999/xlink" width="1836pt" height="548pt" viewBox="0.00 0.00 1836.32 548.00">
<g id="graph0" class="graph" transform="scale(1 1) rotate(0) translate(4 544)">
<title>%0</title>
<polygon fill="#ffffff" stroke="transparent" points="-4,4 -4,-544 1832.322,-544 1832.322,4 -4,4"/>
<!-- [root] azurerm_linux_virtual_machine.linuxvim (expand) -->
<g id="node1" class="node">
<title>[root] azurerm_linux_virtual_machine.linuxvim (expand)</title>
<polygon fill="none" stroke="#000000" points="1139.9161,-396 890.5733,-396 890.5733,-360 1139.9161,-360 1139.9161,-396"/>
<text text-anchor="middle" x="1015.2447" y="-373.8" font-family="Times,serif" font-size="14.00" fill="#000000">azurerm_linux_virtual_machine.linuxvim</text>
</g>
<!-- [root] azurerm_network_interface.nic (expand) -->
<g id="node2" class="node">
<title>[root] azurerm_network_interface.nic (expand)</title>
<polygon fill="none" stroke="#000000" points="962.0389,-324 770.4505,-324 770.4505,-288 962.0389,-288 962.0389,-324"/>
<text text-anchor="middle" x="866.2447" y="-301.8" font-family="Times,serif" font-size="14.00" fill="#000000">azurerm_network_interface.nic</text>
</g>
<!-- [root] azurerm_linux_virtual_machine.linuxvim (expand)&#45;&gt;[root] azurerm_network_interface.nic (expand) -->
<g id="edge1" class="edge">
<title>[root] azurerm_linux_virtual_machine.linuxvim (expand)-&gt;[root] azurerm_network_interface.nic (expand)</title>
<path fill="none" stroke="#000000" d="M977.6457,-359.8314C957.895,-350.2874 933.515,-338.5065 912.603,-328.4013"/>
<polygon fill="#000000" stroke="#000000" points="914.1,-325.2376 903.5733,-324.038 911.0544,-331.5403 914.1,-325.2376"/>
</g>
<!-- [root] var.host_os -->
<g id="node12" class="node">
<title>[root] var.host_os</title>
<polygon fill="none" stroke="#000000" points="1054.3998,-324 980.0895,-324 980.0895,-288 1060.3998,-288 1060.3998,-318 1054.3998,-324"/>
<polyline fill="none" stroke="#000000" points="1054.3998,-324 1054.3998,-318 "/>
<polyline fill="none" stroke="#000000" points="1060.3998,-318 1054.3998,-318 "/>
<text text-anchor="middle" x="1020.2447" y="-301.8" font-family="Times,serif" font-size="14.00" fill="#000000">var.host_os</text>
</g>
<!-- [root] azurerm_linux_virtual_machine.linuxvim (expand)&#45;&gt;[root] var.host_os -->
<g id="edge2" class="edge">
<title>[root] azurerm_linux_virtual_machine.linuxvim (expand)-&gt;[root] var.host_os</title>
<path fill="none" stroke="#000000" d="M1016.5064,-359.8314C1017.0411,-352.131 1017.677,-342.9743 1018.2713,-334.4166"/>
<polygon fill="#000000" stroke="#000000" points="1021.7647,-334.6317 1018.966,-324.4133 1014.7815,-334.1467 1021.7647,-334.6317"/>
</g>
<!-- [root] azurerm_public_ip.publicip (expand) -->
<g id="node5" class="node">
<title>[root] azurerm_public_ip.publicip (expand)</title>
<polygon fill="none" stroke="#000000" points="976.8731,-252 805.6162,-252 805.6162,-216 976.8731,-216 976.8731,-252"/>
<text text-anchor="middle" x="891.2447" y="-229.8" font-family="Times,serif" font-size="14.00" fill="#000000">azurerm_public_ip.publicip</text>
</g>
<!-- [root] azurerm_network_interface.nic (expand)&#45;&gt;[root] azurerm_public_ip.publicip (expand) -->
<g id="edge3" class="edge">
<title>[root] azurerm_network_interface.nic (expand)-&gt;[root] azurerm_public_ip.publicip (expand)</title>
<path fill="none" stroke="#000000" d="M872.5532,-287.8314C875.2564,-280.0463 878.4763,-270.7729 881.4757,-262.1347"/>
<polygon fill="#000000" stroke="#000000" points="884.8774,-263.0081 884.8512,-252.4133 878.2646,-260.7119 884.8774,-263.0081"/>
</g>
<!-- [root] azurerm_subnet.snet (expand) -->
<g id="node7" class="node">
<title>[root] azurerm_subnet.snet (expand)</title>
<polygon fill="none" stroke="#000000" points="788.2007,-252 656.2887,-252 656.2887,-216 788.2007,-216 788.2007,-252"/>
<text text-anchor="middle" x="722.2447" y="-229.8" font-family="Times,serif" font-size="14.00" fill="#000000">azurerm_subnet.snet</text>
</g>
<!-- [root] azurerm_network_interface.nic (expand)&#45;&gt;[root] azurerm_subnet.snet (expand) -->
<g id="edge4" class="edge">
<title>[root] azurerm_network_interface.nic (expand)-&gt;[root] azurerm_subnet.snet (expand)</title>
<path fill="none" stroke="#000000" d="M829.9074,-287.8314C810.905,-278.3302 787.4688,-266.6121 767.3195,-256.5374"/>
<polygon fill="#000000" stroke="#000000" points="768.8302,-253.3797 758.3207,-252.038 765.6997,-259.6407 768.8302,-253.3797"/>
</g>
<!-- [root] azurerm_network_security_group.sg (expand) -->
<g id="node3" class="node">
<title>[root] azurerm_network_security_group.sg (expand)</title>
<polygon fill="none" stroke="#000000" points="693.8938,-324 472.5956,-324 472.5956,-288 693.8938,-288 693.8938,-324"/>
<text text-anchor="middle" x="583.2447" y="-301.8" font-family="Times,serif" font-size="14.00" fill="#000000">azurerm_network_security_group.sg</text>
</g>
<!-- [root] azurerm_resource_group.rg (expand) -->
<g id="node6" class="node">
<title>[root] azurerm_resource_group.rg (expand)</title>
<polygon fill="none" stroke="#000000" points="807.8311,-108 636.6583,-108 636.6583,-72 807.8311,-72 807.8311,-108"/>
<text text-anchor="middle" x="722.2447" y="-85.8" font-family="Times,serif" font-size="14.00" fill="#000000">azurerm_resource_group.rg</text>
</g>
<!-- [root] azurerm_network_security_group.sg (expand)&#45;&gt;[root] azurerm_resource_group.rg (expand) -->
<g id="edge5" class="edge">
<title>[root] azurerm_network_security_group.sg (expand)-&gt;[root] azurerm_resource_group.rg (expand)</title>
<path fill="none" stroke="#000000" d="M582.7032,-287.9221C582.6642,-255.664 586.8884,-187.4958 620.2447,-144 630.3422,-130.8331 644.5805,-120.534 659.2241,-112.6253"/>
<polygon fill="#000000" stroke="#000000" points="661.0159,-115.6413 668.3607,-108.0056 657.8573,-109.3944 661.0159,-115.6413"/>
</g>
<!-- [root] azurerm_network_security_rule.sr (expand) -->
<g id="node4" class="node">
<title>[root] azurerm_network_security_rule.sr (expand)</title>
<polygon fill="none" stroke="#000000" points="513.6597,-396 304.8297,-396 304.8297,-360 513.6597,-360 513.6597,-396"/>
<text text-anchor="middle" x="409.2447" y="-373.8" font-family="Times,serif" font-size="14.00" fill="#000000">azurerm_network_security_rule.sr</text>
</g>
<!-- [root] azurerm_network_security_rule.sr (expand)&#45;&gt;[root] azurerm_network_security_group.sg (expand) -->
<g id="edge6" class="edge">
<title>[root] azurerm_network_security_rule.sr (expand)-&gt;[root] azurerm_network_security_group.sg (expand)</title>
<path fill="none" stroke="#000000" d="M453.1522,-359.8314C476.5271,-350.159 505.4544,-338.1891 530.0915,-327.9944"/>
<polygon fill="#000000" stroke="#000000" points="531.751,-331.0956 539.6529,-324.038 529.0744,-324.6275 531.751,-331.0956"/>
</g>
<!-- [root] azurerm_public_ip.publicip (expand)&#45;&gt;[root] azurerm_resource_group.rg (expand) -->
<g id="edge7" class="edge">
<title>[root] azurerm_public_ip.publicip (expand)-&gt;[root] azurerm_resource_group.rg (expand)</title>
<path fill="none" stroke="#000000" d="M881.1141,-215.8997C869.4232,-196.2629 848.6425,-164.9232 824.2447,-144 809.8072,-131.6187 792.0529,-120.9949 775.4263,-112.5276"/>
<polygon fill="#000000" stroke="#000000" points="776.8508,-109.3278 766.3336,-108.0479 773.7572,-115.6071 776.8508,-109.3278"/>
</g>
<!-- [root] provider[&quot;registry.terraform.io/hashicorp/azurerm&quot;] -->
<g id="node11" class="node">
<title>[root] provider["registry.terraform.io/hashicorp/azurerm"]</title>
<polygon fill="none" stroke="#000000" points="298.2447,-36 -.2449,-18 298.2447,0 596.7343,-18 298.2447,-36"/>
<text text-anchor="middle" x="298.2447" y="-13.8" font-family="Times,serif" font-size="14.00" fill="#000000">provider["registry.terraform.io/hashicorp/azurerm"]</text>
</g>
<!-- [root] azurerm_resource_group.rg (expand)&#45;&gt;[root] provider[&quot;registry.terraform.io/hashicorp/azurerm&quot;] -->
<g id="edge10" class="edge">
<title>[root] azurerm_resource_group.rg (expand)-&gt;[root] provider["registry.terraform.io/hashicorp/azurerm"]</title>
<path fill="none" stroke="#000000" d="M636.6971,-75.4731C564.036,-63.1344 460.1434,-45.4922 386.6722,-33.016"/>
<polygon fill="#000000" stroke="#000000" points="386.9583,-29.5145 376.5135,-31.2909 385.7863,-36.4158 386.9583,-29.5145"/>
</g>
<!-- [root] local.env (expand) -->
<g id="node13" class="node">
<title>[root] local.env (expand)</title>
<ellipse fill="none" stroke="#000000" cx="722.2447" cy="-18" rx="107.0885" ry="18"/>
<text text-anchor="middle" x="722.2447" y="-13.8" font-family="Times,serif" font-size="14.00" fill="#000000">[root] local.env (expand)</text>
</g>
<!-- [root] azurerm_resource_group.rg (expand)&#45;&gt;[root] local.env (expand) -->
<g id="edge8" class="edge">
<title>[root] azurerm_resource_group.rg (expand)-&gt;[root] local.env (expand)</title>
<path fill="none" stroke="#000000" d="M722.2447,-71.8314C722.2447,-64.131 722.2447,-54.9743 722.2447,-46.4166"/>
<polygon fill="#000000" stroke="#000000" points="725.7448,-46.4132 722.2447,-36.4133 718.7448,-46.4133 725.7448,-46.4132"/>
</g>
<!-- [root] local.location (expand) -->
<g id="node14" class="node">
<title>[root] local.location (expand)</title>
<ellipse fill="none" stroke="#000000" cx="972.2447" cy="-18" rx="124.4205" ry="18"/>
<text text-anchor="middle" x="972.2447" y="-13.8" font-family="Times,serif" font-size="14.00" fill="#000000">[root] local.location (expand)</text>
</g>
<!-- [root] azurerm_resource_group.rg (expand)&#45;&gt;[root] local.location (expand) -->
<g id="edge9" class="edge">
<title>[root] azurerm_resource_group.rg (expand)-&gt;[root] local.location (expand)</title>
<path fill="none" stroke="#000000" d="M785.0075,-71.9243C822.0513,-61.2557 868.8857,-47.7674 906.4465,-36.9499"/>
<polygon fill="#000000" stroke="#000000" points="907.6395,-40.2486 916.2803,-34.1178 905.7022,-33.522 907.6395,-40.2486"/>
</g>
<!-- [root] azurerm_virtual_network.vnet (expand) -->
<g id="node9" class="node">
<title>[root] azurerm_virtual_network.vnet (expand)</title>
<polygon fill="none" stroke="#000000" points="815.1249,-180 629.3644,-180 629.3644,-144 815.1249,-144 815.1249,-180"/>
<text text-anchor="middle" x="722.2447" y="-157.8" font-family="Times,serif" font-size="14.00" fill="#000000">azurerm_virtual_network.vnet</text>
</g>
<!-- [root] azurerm_subnet.snet (expand)&#45;&gt;[root] azurerm_virtual_network.vnet (expand) -->
<g id="edge11" class="edge">
<title>[root] azurerm_subnet.snet (expand)-&gt;[root] azurerm_virtual_network.vnet (expand)</title>
<path fill="none" stroke="#000000" d="M722.2447,-215.8314C722.2447,-208.131 722.2447,-198.9743 722.2447,-190.4166"/>
<polygon fill="#000000" stroke="#000000" points="725.7448,-190.4132 722.2447,-180.4133 718.7448,-190.4133 725.7448,-190.4132"/>
</g>
<!-- [root] azurerm_subnet_network_security_group_association.sga (expand) -->
<g id="node8" class="node">
<title>[root] azurerm_subnet_network_security_group_association.sga (expand)</title>
<polygon fill="none" stroke="#000000" points="872.3629,-396 532.1265,-396 532.1265,-360 872.3629,-360 872.3629,-396"/>
<text text-anchor="middle" x="702.2447" y="-373.8" font-family="Times,serif" font-size="14.00" fill="#000000">azurerm_subnet_network_security_group_association.sga</text>
</g>
<!-- [root] azurerm_subnet_network_security_group_association.sga (expand)&#45;&gt;[root] azurerm_network_security_group.sg (expand) -->
<g id="edge12" class="edge">
<title>[root] azurerm_subnet_network_security_group_association.sga (expand)-&gt;[root] azurerm_network_security_group.sg (expand)</title>
<path fill="none" stroke="#000000" d="M672.216,-359.8314C656.9951,-350.6221 638.3319,-339.3301 622.0364,-329.4706"/>
<polygon fill="#000000" stroke="#000000" points="623.6315,-326.345 613.2638,-324.1628 620.0078,-332.3341 623.6315,-326.345"/>
</g>
<!-- [root] azurerm_subnet_network_security_group_association.sga (expand)&#45;&gt;[root] azurerm_subnet.snet (expand) -->
<g id="edge13" class="edge">
<title>[root] azurerm_subnet_network_security_group_association.sga (expand)-&gt;[root] azurerm_subnet.snet (expand)</title>
<path fill="none" stroke="#000000" d="M704.7777,-359.7623C708.189,-335.201 714.2937,-291.2474 718.3066,-262.3541"/>
<polygon fill="#000000" stroke="#000000" points="721.8232,-262.4761 719.7322,-252.0896 714.8897,-261.513 721.8232,-262.4761"/>
</g>
<!-- [root] azurerm_virtual_network.vnet (expand)&#45;&gt;[root] azurerm_resource_group.rg (expand) -->
<g id="edge14" class="edge">
<title>[root] azurerm_virtual_network.vnet (expand)-&gt;[root] azurerm_resource_group.rg (expand)</title>
<path fill="none" stroke="#000000" d="M722.2447,-143.8314C722.2447,-136.131 722.2447,-126.9743 722.2447,-118.4166"/>
<polygon fill="#000000" stroke="#000000" points="725.7448,-118.4132 722.2447,-108.4133 718.7448,-118.4133 725.7448,-118.4132"/>
</g>
<!-- [root] data.azurerm_public_ip.ipdata (expand) -->
<g id="node10" class="node">
<title>[root] data.azurerm_public_ip.ipdata (expand)</title>
<polygon fill="none" stroke="#000000" points="1344.5171,-396 1157.9723,-396 1157.9723,-360 1344.5171,-360 1344.5171,-396"/>
<text text-anchor="middle" x="1251.2447" y="-373.8" font-family="Times,serif" font-size="14.00" fill="#000000">data.azurerm_public_ip.ipdata</text>
</g>
<!-- [root] data.azurerm_public_ip.ipdata (expand)&#45;&gt;[root] azurerm_public_ip.publicip (expand) -->
<g id="edge15" class="edge">
<title>[root] data.azurerm_public_ip.ipdata (expand)-&gt;[root] azurerm_public_ip.publicip (expand)</title>
<path fill="none" stroke="#000000" d="M1218.7767,-359.9052C1182.9349,-340.4168 1123.1602,-309.3406 1069.2447,-288 1037.4085,-275.3987 1001.4107,-263.9728 970.1592,-254.9101"/>
<polygon fill="#000000" stroke="#000000" points="970.7681,-251.4437 960.1907,-252.0522 968.8389,-258.1726 970.7681,-251.4437"/>
</g>
<!-- [root] output.public_ip_address (expand) -->
<g id="node15" class="node">
<title>[root] output.public_ip_address (expand)</title>
<ellipse fill="none" stroke="#000000" cx="1202.2447" cy="-450" rx="169.5545" ry="18"/>
<text text-anchor="middle" x="1202.2447" y="-445.8" font-family="Times,serif" font-size="14.00" fill="#000000">[root] output.public_ip_address (expand)</text>
</g>
<!-- [root] output.public_ip_address (expand)&#45;&gt;[root] azurerm_linux_virtual_machine.linuxvim (expand) -->
<g id="edge16" class="edge">
<title>[root] output.public_ip_address (expand)-&gt;[root] azurerm_linux_virtual_machine.linuxvim (expand)</title>
<path fill="none" stroke="#000000" d="M1156.9772,-432.5708C1131.2572,-422.6679 1098.8318,-410.1833 1071.4885,-399.6554"/>
<polygon fill="#000000" stroke="#000000" points="1072.638,-396.3475 1062.0482,-396.0206 1070.1227,-402.8801 1072.638,-396.3475"/>
</g>
<!-- [root] output.public_ip_address (expand)&#45;&gt;[root] data.azurerm_public_ip.ipdata (expand) -->
<g id="edge17" class="edge">
<title>[root] output.public_ip_address (expand)-&gt;[root] data.azurerm_public_ip.ipdata (expand)</title>
<path fill="none" stroke="#000000" d="M1214.6095,-431.8314C1220.1955,-423.6232 1226.9076,-413.7606 1233.0519,-404.7323"/>
<polygon fill="#000000" stroke="#000000" points="1235.9807,-406.6496 1238.7134,-396.4133 1230.1936,-402.7112 1235.9807,-406.6496"/>
</g>
<!-- [root] provider[&quot;registry.terraform.io/hashicorp/azurerm&quot;] (close) -->
<g id="node16" class="node">
<title>[root] provider["registry.terraform.io/hashicorp/azurerm"] (close)</title>
<ellipse fill="none" stroke="#000000" cx="750.2447" cy="-450" rx="263.9501" ry="18"/>
<text text-anchor="middle" x="750.2447" y="-445.8" font-family="Times,serif" font-size="14.00" fill="#000000">[root] provider["registry.terraform.io/hashicorp/azurerm"] (close)</text>
</g>
<!-- [root] provider[&quot;registry.terraform.io/hashicorp/azurerm&quot;] (close)&#45;&gt;[root] azurerm_linux_virtual_machine.linuxvim (expand) -->
<g id="edge18" class="edge">
<title>[root] provider["registry.terraform.io/hashicorp/azurerm"] (close)-&gt;[root] azurerm_linux_virtual_machine.linuxvim (expand)</title>
<path fill="none" stroke="#000000" d="M814.7321,-432.4789C852.1595,-422.3099 899.5202,-409.4421 938.814,-398.7661"/>
<polygon fill="#000000" stroke="#000000" points="939.8868,-402.1016 948.6192,-396.102 938.0514,-395.3465 939.8868,-402.1016"/>
</g>
<!-- [root] provider[&quot;registry.terraform.io/hashicorp/azurerm&quot;] (close)&#45;&gt;[root] azurerm_network_security_rule.sr (expand) -->
<g id="edge19" class="edge">
<title>[root] provider["registry.terraform.io/hashicorp/azurerm"] (close)-&gt;[root] azurerm_network_security_rule.sr (expand)</title>
<path fill="none" stroke="#000000" d="M668.9999,-432.8457C619.5872,-422.4125 556.2457,-409.0383 504.4828,-398.1089"/>
<polygon fill="#000000" stroke="#000000" points="505.1331,-394.6691 494.6257,-396.0277 503.6869,-401.5181 505.1331,-394.6691"/>
</g>
<!-- [root] provider[&quot;registry.terraform.io/hashicorp/azurerm&quot;] (close)&#45;&gt;[root] azurerm_subnet_network_security_group_association.sga (expand) -->
<g id="edge20" class="edge">
<title>[root] provider["registry.terraform.io/hashicorp/azurerm"] (close)-&gt;[root] azurerm_subnet_network_security_group_association.sga (expand)</title>
<path fill="none" stroke="#000000" d="M738.1323,-431.8314C732.7166,-423.7079 726.2205,-413.9637 720.2525,-405.0118"/>
<polygon fill="#000000" stroke="#000000" points="722.9794,-402.7923 714.5202,-396.4133 717.1551,-406.6753 722.9794,-402.7923"/>
</g>
<!-- [root] provider[&quot;registry.terraform.io/hashicorp/azurerm&quot;] (close)&#45;&gt;[root] data.azurerm_public_ip.ipdata (expand) -->
<g id="edge21" class="edge">
<title>[root] provider["registry.terraform.io/hashicorp/azurerm"] (close)-&gt;[root] data.azurerm_public_ip.ipdata (expand)</title>
<path fill="none" stroke="#000000" d="M877.1194,-434.1502C953.0166,-424.3521 1051.6198,-411.0706 1147.9681,-396.1705"/>
<polygon fill="#000000" stroke="#000000" points="1148.5417,-399.6235 1157.8859,-394.6297 1147.4671,-392.7065 1148.5417,-399.6235"/>
</g>
<!-- [root] root -->
<g id="node17" class="node">
<title>[root] root</title>
<ellipse fill="none" stroke="#000000" cx="1349.2447" cy="-522" rx="50.9823" ry="18"/>
<text text-anchor="middle" x="1349.2447" y="-517.8" font-family="Times,serif" font-size="14.00" fill="#000000">[root] root</text>
</g>
<!-- [root] root&#45;&gt;[root] output.public_ip_address (expand) -->
<g id="edge24" class="edge">
<title>[root] root-&gt;[root] output.public_ip_address (expand)</title>
<path fill="none" stroke="#000000" d="M1319.1423,-507.256C1298.4533,-497.1226 1270.617,-483.4885 1247.298,-472.0669"/>
<polygon fill="#000000" stroke="#000000" points="1248.7979,-468.9043 1238.2777,-467.6488 1245.7188,-475.1908 1248.7979,-468.9043"/>
</g>
<!-- [root] root&#45;&gt;[root] provider[&quot;registry.terraform.io/hashicorp/azurerm&quot;] (close) -->
<g id="edge25" class="edge">
<title>[root] root-&gt;[root] provider["registry.terraform.io/hashicorp/azurerm"] (close)</title>
<path fill="none" stroke="#000000" d="M1300.7334,-516.1689C1212.5133,-505.5648 1022.7613,-482.7566 890.8667,-466.9028"/>
<polygon fill="#000000" stroke="#000000" points="891.0252,-463.3968 880.6789,-465.6782 890.1897,-470.3467 891.0252,-463.3968"/>
</g>
<!-- [root] local.org (expand) -->
<g id="node18" class="node">
<title>[root] local.org (expand)</title>
<ellipse fill="none" stroke="#000000" cx="1496.2447" cy="-450" rx="106.4447" ry="18"/>
<text text-anchor="middle" x="1496.2447" y="-445.8" font-family="Times,serif" font-size="14.00" fill="#000000">[root] local.org (expand)</text>
</g>
<!-- [root] root&#45;&gt;[root] local.org (expand) -->
<g id="edge22" class="edge">
<title>[root] root-&gt;[root] local.org (expand)</title>
<path fill="none" stroke="#000000" d="M1379.3471,-507.256C1400.3327,-496.9773 1428.672,-483.0968 1452.1915,-471.577"/>
<polygon fill="#000000" stroke="#000000" points="1453.8334,-474.6702 1461.2745,-467.1283 1450.7543,-468.3838 1453.8334,-474.6702"/>
</g>
<!-- [root] local.prj (expand) -->
<g id="node19" class="node">
<title>[root] local.prj (expand)</title>
<ellipse fill="none" stroke="#000000" cx="1724.2447" cy="-450" rx="104.1547" ry="18"/>
<text text-anchor="middle" x="1724.2447" y="-445.8" font-family="Times,serif" font-size="14.00" fill="#000000">[root] local.prj (expand)</text>
</g>
<!-- [root] root&#45;&gt;[root] local.prj (expand) -->
<g id="edge23" class="edge">
<title>[root] root-&gt;[root] local.prj (expand)</title>
<path fill="none" stroke="#000000" d="M1394.106,-513.3866C1455.8762,-501.5268 1568.1211,-479.9757 1644.4055,-465.3291"/>
<polygon fill="#000000" stroke="#000000" points="1645.2946,-468.7224 1654.4553,-463.3996 1643.9747,-461.848 1645.2946,-468.7224"/>
</g>
</g>
</svg>